<svg xmlns="http://www.w3.org/2000/svg" xmlns:xlink="http://www.w3.org/1999/xlink" width="13" height="13" viewBox="0 0 13 13">
  <defs>
    <style>
      .cls-1 {
        clip-path: url(#clip-AC);
      }

      .cls-2 {
        fill: #1d6392;
      }
    </style>
    <clipPath id="clip-AC">
      <rect width="13" height="13"/>
    </clipPath>
  </defs>
  <g id="AC" class="cls-1">
    <path id="snowflake" class="cls-2" d="M11.945,5.792h-.522l.28-.484a.361.361,0,1,0-.624-.361l-.488.845H9.164l.324-.746a.361.361,0,0,0-.2-.48L8.54,4.276,9.546,3.27l.942.252a.361.361,0,0,0,.187-.7l-.54-.145.369-.369a.361.361,0,0,0-.51-.51l-.369.369-.145-.54a.361.361,0,1,0-.7.187l.252.942L8.027,3.769l-.3-.756a.361.361,0,0,0-.481-.2l-.735.324V1.715l.845-.488A.361.361,0,1,0,7,.6l-.484.28V.361a.361.361,0,0,0-.721,0V.882L5.308.6a.361.361,0,1,0-.361.624l.845.488V3.142l-.746-.324a.361.361,0,0,0-.48.2l-.291.748L3.27,2.76l.252-.942a.361.361,0,0,0-.7-.187l-.145.54L2.312,1.8a.361.361,0,1,0-.51.51l.369.369-.54.145a.361.361,0,1,0,.187.7L2.76,3.27,3.769,4.279l-.756.3a.361.361,0,0,0-.2.481l.324.735H1.715l-.488-.845A.361.361,0,1,0,.6,5.308l.28.484H.361a.361.361,0,1,0,0,.721H.882L.6,7a.361.361,0,1,0,.624.361l.488-.845H3.142l-.324.746a.361.361,0,0,0,.2.48l.748.291L2.76,9.036l-.942-.252a.361.361,0,1,0-.187.7l.54.145L1.8,9.994a.361.361,0,1,0,.51.51l.369-.369.145.54a.361.361,0,1,0,.7-.187L3.27,9.546,4.278,8.537l.3.756a.361.361,0,0,0,.481.2l.735-.324v1.423l-.845.488a.361.361,0,1,0,.361.624l.484-.28v.522a.361.361,0,0,0,.721,0v-.522L7,11.7a.361.361,0,0,0,.361-.624l-.845-.488V9.164l.746.324a.361.361,0,0,0,.48-.2L8.03,8.54,9.036,9.546l-.252.942a.361.361,0,1,0,.7.187l.145-.54.369.369a.361.361,0,0,0,.51-.51l-.369-.369.54-.145a.361.361,0,1,0-.187-.7l-.942.252L8.537,8.027l.756-.3a.361.361,0,0,0,.2-.481l-.324-.735h1.423l.488.845A.361.361,0,1,0,11.7,7l-.28-.484h.522a.361.361,0,0,0,0-.721ZM4.325,4.834l.958.958H3.926l-.3-.682Zm0,2.638L3.629,7.2l.3-.689H5.283Zm1.469.907-.682.3-.276-.7.958-.958Zm0-3.1-.959-.959.27-.695.689.3Zm2.19-.449.695.27-.3.689H7.023ZM6.514,3.926l.682-.3.276.7-.958.958ZM7.2,8.677l-.689-.3V7.023l.959.959Zm.779-1.206-.958-.958H8.38l.3.682Z" transform="translate(0 -0.001)"/>
  </g>
</svg>
