<svg xmlns="http://www.w3.org/2000/svg" xmlns:xlink="http://www.w3.org/1999/xlink" width="13" height="13" viewBox="0 0 13 13">
  <defs>
    <style>
      .cls-1 {
        clip-path: url(#clip-Fuel_1);
      }

      .cls-2 {
        fill: #1d6392;
      }
    </style>
    <clipPath id="clip-Fuel_1">
      <rect width="13" height="13"/>
    </clipPath>
  </defs>
  <g id="Fuel_1" data-name="Fuel – 1" class="cls-1">
    <g id="fuel_6_" data-name="fuel (6)" transform="translate(0.091 0.047)">
      <path id="Path_12753" data-name="Path 12753" class="cls-2" d="M.491,1.309,3.908,2.316a.8.8,0,0,1,.289.155l1.039.866L6.111,2.4,4.675,1.231a.351.351,0,0,0-.123-.065L.853.077A.352.352,0,0,0,.416.316L.253.872a.352.352,0,0,0,.238.437Zm0,0" transform="translate(-0.231 0)"/>
      <path id="Path_12754" data-name="Path 12754" class="cls-2" d="M214.061,104.723a.229.229,0,0,1,.078.132l1.59,8.265a.932.932,0,0,0,1.292.677l2.378-1.051a.229.229,0,0,1,.3.123.305.305,0,0,0,.4.167l1.159-.475a.305.305,0,0,0,.167-.4l-2.163-5.277a.229.229,0,0,1,.039-.237l.248-.287a.352.352,0,0,0-.036-.5l-2.413-2.091a.352.352,0,0,0-.5.037l-.537.621a.229.229,0,0,1-.32.026l-.884-.736-.877.94Z" transform="translate(-208.632 -101.034)"/>
      <path id="Path_12755" data-name="Path 12755" class="cls-2" d="M1.146,148.467a1.107,1.107,0,0,0,1.144-1.144,5.267,5.267,0,0,0-1.144-2.174A5.266,5.266,0,0,0,0,147.323a1.107,1.107,0,0,0,1.144,1.144Zm0,0" transform="translate(0 -141.455)"/>
    </g>
  </g>
</svg>
