<svg xmlns="http://www.w3.org/2000/svg" xmlns:xlink="http://www.w3.org/1999/xlink" width="15" height="15" viewBox="0 0 15 15">
  <defs>
    <style>
      .cls-1 {
        clip-path: url(#clip-License_1);
      }

      .cls-2 {
        fill: #1d6392;
      }
    </style>
    <clipPath id="clip-License_1">
      <rect width="15" height="15"/>
    </clipPath>
  </defs>
  <g id="License_1" data-name="License – 1" class="cls-1">
    <path id="id-card" class="cls-2" d="M13.281,0H1.719A1.72,1.72,0,0,0,0,1.719V9.531A1.72,1.72,0,0,0,1.719,11.25H13.281A1.72,1.72,0,0,0,15,9.531V1.719A1.72,1.72,0,0,0,13.281,0ZM4.688,2.5A1.563,1.563,0,1,1,3.125,4.063,1.565,1.565,0,0,1,4.688,2.5ZM7.5,8.281a.469.469,0,0,1-.469.469H2.344a.469.469,0,0,1-.469-.469V7.969A1.72,1.72,0,0,1,3.594,6.25H5.781A1.72,1.72,0,0,1,7.5,7.969Zm5.156.469H9.219a.469.469,0,0,1,0-.937h3.437a.469.469,0,0,1,0,.938Zm0-2.5H9.219a.469.469,0,0,1,0-.938h3.437a.469.469,0,0,1,0,.938Zm0-2.5H9.219a.469.469,0,0,1,0-.937h3.437a.469.469,0,0,1,0,.938Zm0,0" transform="translate(0 1.625)"/>
  </g>
</svg>
