<?xml version="1.0" encoding="utf-8"?>
<!-- Generator: Adobe Illustrator 25.1.0, SVG Export Plug-In . SVG Version: 6.00 Build 0)  -->
<svg version="1.1" id="Layer_1" xmlns="http://www.w3.org/2000/svg" xmlns:xlink="http://www.w3.org/1999/xlink" x="0px" y="0px"
	 viewBox="0 0 196 56" style="enable-background:new 0 0 196 56;" xml:space="preserve">
<style type="text/css">
	.st0{fill:#FFFFFF;}
</style>
<g id="ARTWORK">
	<path class="st0" d="M30.2,43.4c2.4-2.3,4.4-7.7,4.4-14.5c0-0.4,0-0.7,0-1.1c9.1-1.3,12.8-5.3,13.4-8c2.1,2.3,3.2,5.3,2.9,8.4
		C50.4,36.1,41.8,42.6,30.2,43.4 M27.9,38.1L27.9,38.1c-2.1,0-4-4.5-4.1-10c0,0,0.6,0.1,1.4,0.1s1.9,0.1,2.7,0.1h0.2
		c0.8,0,1.8,0,2.7-0.1c0.9-0.1,1.4-0.1,1.4-0.1C32,33.5,30.1,38.1,27.9,38.1 M4.9,28.2c-0.3-3.1,0.8-6.1,2.9-8.4
		c0.6,2.8,4.3,6.7,13.4,8c0,0.4,0,0.7,0,1.1c0,6.8,2,12.2,4.4,14.5C14.2,42.7,5.5,36.2,4.9,28.2 M31.7,23.8C30.5,23.9,29.2,24,28,24
		l0,0c-1.3,0-2.6-0.1-3.7-0.2c0.6-3.8,2.1-6.5,3.7-6.5l0,0C29.6,17.3,31,20,31.7,23.8 M27.9,12.9L27.9,12.9c8.6,0,15.4,2.6,15.4,5.6
		c0,2.3-3.7,4.2-9.1,5.1c-1-5.8-3.4-9.9-6.3-10s-5.4,4.2-6.3,10c-5.4-0.9-9.1-2.8-9.1-5.1C12.5,15.5,19.3,12.9,27.9,12.9 M27.9,10.6
		C13.1,10.7,0.9,18.2,1,28.2s12.2,17.3,26.9,17.3l0,0c14.7,0,26.8-7.3,26.9-17.3S42.8,10.7,27.9,10.6"/>
	<path class="st0" d="M70.4,15.9H67v10.7h-3.2V15.9h-3.4v-2.8h10C70.4,13.1,70.4,15.9,70.4,15.9z"/>
	<path class="st0" d="M71.5,19.8c0-4.2,3-6.9,7.1-6.9s7.1,2.7,7.1,6.8c0.1,3.7-2.8,6.8-6.5,7c-0.2,0-0.4,0-0.6,0
		C74.5,26.7,71.5,24,71.5,19.8z M82.3,19.8c0.1-2.1-1.5-3.8-3.6-3.9c-2.1-0.1-3.8,1.5-3.9,3.6c0,0.1,0,0.2,0,0.4
		c-0.1,2.1,1.5,3.8,3.6,3.9s3.8-1.5,3.9-3.6C82.3,20.1,82.3,19.9,82.3,19.8z"/>
	<path class="st0" d="M93.2,21.4v5.2H90v-5.2l-4.4-8.3h3.5l2.7,5.3l2.7-5.3h3.1L93.2,21.4z"/>
	<path class="st0" d="M97.7,19.8c0-4.2,3-6.9,7.1-6.9c4,0,7.1,2.7,7.1,6.8c0.1,3.7-2.8,6.8-6.5,7c-0.2,0-0.4,0-0.6,0
		C100.7,26.7,97.7,24,97.7,19.8z M108.5,19.8c0-2.1-1.7-3.8-3.8-3.8c-2.1,0-3.8,1.7-3.8,3.8l0,0c0,2.1,1.7,3.8,3.8,3.8
		C106.8,23.6,108.5,21.9,108.5,19.8L108.5,19.8z"/>
	<path class="st0" d="M122.6,15.9h-3.4v10.7H116V15.9h-3.4v-2.8h10V15.9z"/>
	<path class="st0" d="M130.9,23.1h-4.4l-1.2,3.5h-3.2l4.9-13.4h3.5l4.9,13.4H132L130.9,23.1z M130,20.6l-1.4-4l-1.3,4H130z"/>
	<path class="st0" d="M143,13.1h8.4v2.8h-5.2v2.7h4.9v2.8h-4.9v5.2H143V13.1z"/>
	<path class="st0" d="M162,23.7v2.8h-8.3V13.1h3.2v10.6H162z"/>
	<path class="st0" d="M163.8,13.1h8.4v2.8H167v2.6h5.1v2.7H167v2.6h5.4v2.8h-8.6L163.8,13.1z"/>
	<path class="st0" d="M174.8,13.1h8.4v2.8H178v2.6h5.1v2.7H178v2.6h5.4v2.8h-8.6L174.8,13.1L174.8,13.1z"/>
	<path class="st0" d="M195,15.9h-3.4v10.7h-3.2V15.9H185v-2.8h10V15.9z"/>
	<path class="st0" d="M61.5,29.7h4.2l3,6.1l3.3-6.1h4v13.4h-3.1v-9.4l-3,5.8h-2.5l-2.9-5.8v9.4h-3.1L61.5,29.7L61.5,29.7z"/>
	<path class="st0" d="M85.9,39.6h-4.3L80.5,43h-3.2l4.8-13.4h3.4L90.3,43H87L85.9,39.6z M85.1,37.1l-1.3-4l-1.3,4H85.1z"/>
	<path class="st0" d="M103.5,29.7v13.4h-3l-5.8-8.5v8.5h-3V29.7h3l5.8,8.6v-8.6C100.5,29.7,103.5,29.7,103.5,29.7z"/>
	<path class="st0" d="M113.4,39.6h-4.3L108,43h-3.2l4.8-13.4h3.4l4.8,13.4h-3.3L113.4,39.6z M112.6,37.1l-1.3-4l-1.3,4H112.6z"/>
	<path class="st0" d="M130.8,35.7v7.4H128v-1.5c-1,1.1-2.4,1.7-3.9,1.6c-3.5,0-6.3-2.7-6.3-6.8c-0.2-3.7,2.7-6.8,6.4-7
		c0.2,0,0.4,0,0.6,0c1.8,0,3.5,0.6,5,1.6l-1.1,2.9c-1.1-0.9-2.4-1.4-3.8-1.5c-2,0-3.7,1.3-3.7,4c0,2.6,1.5,3.9,3.5,3.9
		c1.4,0.1,2.7-0.7,3.2-2.1h-3.3v-2.5C124.6,35.7,130.8,35.7,130.8,35.7z"/>
	<path class="st0" d="M133.1,29.7h8.3v2.8h-5.2V35h5v2.7h-5v2.6h5.4V43h-8.5V29.7z"/>
	<path class="st0" d="M143.9,29.7h4.2l3,6.1l3.3-6.1h4v13.4h-3.1v-9.4l-2.9,5.8h-2.5l-2.9-5.8v9.4h-3L143.9,29.7z"/>
	<path class="st0" d="M160.9,29.7h8.3v2.8H164V35h5v2.7h-5v2.6h5.4V43h-8.5V29.7z"/>
	<path class="st0" d="M183.4,29.7v13.4h-3l-5.8-8.6v8.6h-3V29.7h3l5.8,8.6v-8.6C180.4,29.7,183.4,29.7,183.4,29.7z"/>
	<path class="st0" d="M195,32.4h-3.4V43h-3.1V32.4h-3.4v-2.8h9.9V32.4z"/>
</g>
</svg>
