<svg xmlns="http://www.w3.org/2000/svg" xmlns:xlink="http://www.w3.org/1999/xlink" width="137" height="104" viewBox="0 0 137 104">
  <defs>
    <style>
      .cls-1 {
        clip-path: url(#clip-No_Bookings_1);
      }

      .cls-2 {
        opacity: 0.4;
      }

      .cls-3 {
        fill: #bbbbcd;
      }

      .cls-4 {
        fill: #004675;
      }

      .cls-5 {
        fill: #eee;
      }

      .cls-6 {
        fill: #c6c6c6;
      }

      .cls-7 {
        fill: #0fbfbd;
      }

      .cls-8 {
        fill: #00a6a4;
      }

      .cls-9 {
        fill: #62667c;
      }

      .cls-10 {
        fill: #fff;
      }

      .cls-11 {
        fill: #323c6b;
      }

      .cls-12 {
        fill: #e1e6e9;
      }

      .cls-13 {
        fill: #d5d6db;
      }

      .cls-14 {
        fill: #5dade2;
      }
    </style>
    <clipPath id="clip-No_Bookings_1">
      <rect width="137" height="104"/>
    </clipPath>
  </defs>
  <g id="No_Bookings_1" data-name="No Bookings – 1" class="cls-1">
    <g id="color_line" data-name="color line" class="cls-2" transform="translate(-1.074 -9.818)">
      <path id="Path_12702" data-name="Path 12702" class="cls-3" d="M12.773,36.259H5.758a4.185,4.185,0,0,0,0,8.37h2.9" transform="translate(0.452 23.973)"/>
      <path id="Path_12703" data-name="Path 12703" class="cls-4" d="M9.114,46.035h-2.9a5.138,5.138,0,1,1,0-10.277h7.011a.953.953,0,1,1,0,1.907H6.212a3.232,3.232,0,1,0,0,6.464h2.9a.953.953,0,1,1,0,1.907Z" transform="translate(0 23.519)"/>
      <path id="Path_12704" data-name="Path 12704" class="cls-3" d="M45.595,44.628h2.9a4.185,4.185,0,0,0,0-8.37H41.486" transform="translate(36.641 23.972)"/>
      <path id="Path_12705" data-name="Path 12705" class="cls-4" d="M48.952,46.035h-2.9a.953.953,0,1,1,0-1.907h2.9a3.232,3.232,0,1,0,0-6.464H41.939a.953.953,0,1,1,0-1.907h7.013a5.138,5.138,0,0,1,0,10.277Z" transform="translate(36.187 23.519)"/>
      <path id="Path_12706" data-name="Path 12706" class="cls-5" d="M78.176,53.447H5.379l.362-.362A5.893,5.893,0,0,0,6.885,51.5l6.732-22.556a5.461,5.461,0,0,1,5.034-3.356H64.888a5.423,5.423,0,0,1,5.034,3.356L76.653,51.5a5.958,5.958,0,0,0,1.163,1.583Z" transform="translate(3.903 14.3)"/>
      <path id="Path_12707" data-name="Path 12707" class="cls-6" d="M52.073,53.447H47.459l-.362-.362A5.961,5.961,0,0,1,45.933,51.5L39.2,28.946a5.423,5.423,0,0,0-5.034-3.356h4.614a5.423,5.423,0,0,1,5.034,3.356L50.547,51.5a5.958,5.958,0,0,0,1.163,1.583Z" transform="translate(30.007 14.3)"/>
      <path id="Path_12708" data-name="Path 12708" class="cls-7" d="M87.891,49.409V67.618A6.58,6.58,0,0,1,81.313,74.2H8.516a6.584,6.584,0,0,1-6.6-6.578V49.409A6.624,6.624,0,0,1,3.9,44.7l4.614-4.5h72.8l4.6,4.5a6.546,6.546,0,0,1,1.983,4.709Z" transform="translate(0.766 27.546)"/>
      <path id="Path_12709" data-name="Path 12709" class="cls-8" d="M87.882,48.475V66.684A6.58,6.58,0,0,1,81.3,73.262H8.507a6.576,6.576,0,0,1-6.578-6.14,6.837,6.837,0,0,0,2.174.362H76.9a6.58,6.58,0,0,0,6.578-6.578V42.7a6.309,6.309,0,0,0-.172-1.468L85.9,43.766a6.546,6.546,0,0,1,1.983,4.709Z" transform="translate(0.775 28.48)"/>
      <path id="Path_12710" data-name="Path 12710" class="cls-9" d="M5.938,58.04v6.8a3.274,3.274,0,0,0,3.274,3.274h7.861a3.274,3.274,0,0,0,3.272-3.274V58.03Z" transform="translate(4.41 43.712)"/>
      <path id="Path_12711" data-name="Path 12711" class="cls-4" d="M17.524,69.522H9.663a4.231,4.231,0,0,1-4.225-4.237v-6.8a.953.953,0,0,1,.953-.953H20.8a.953.953,0,0,1,.953.953v6.8A4.231,4.231,0,0,1,17.524,69.522ZM7.343,59.442v5.844a2.322,2.322,0,0,0,2.32,2.32h7.861a2.322,2.322,0,0,0,2.32-2.32V59.442Z" transform="translate(3.957 43.264)"/>
      <path id="Path_12712" data-name="Path 12712" class="cls-9" d="M35.439,58.04v6.8a3.274,3.274,0,0,0,3.274,3.274h7.861a3.274,3.274,0,0,0,3.281-3.274V58.03Z" transform="translate(31.158 43.712)"/>
      <path id="Path_12713" data-name="Path 12713" class="cls-4" d="M47.026,69.522H39.165a4.231,4.231,0,0,1-4.227-4.237v-6.8a.953.953,0,0,1,.953-.953H50.31a.953.953,0,0,1,.953.953v6.8a4.231,4.231,0,0,1-4.237,4.237ZM36.845,59.442v5.844a2.322,2.322,0,0,0,2.32,2.32h7.861a2.322,2.322,0,0,0,2.33-2.32V59.442Z" transform="translate(30.704 43.264)"/>
      <path id="Path_12714" data-name="Path 12714" class="cls-10" d="M12.923,47.219H9.284a3.318,3.318,0,0,0-3.318,3.318V53.8a3.318,3.318,0,0,0,3.318,3.318H19.789A2.566,2.566,0,0,0,22.2,53.665,9.9,9.9,0,0,0,12.923,47.219Z" transform="translate(4.435 33.91)"/>
      <path id="Path_12715" data-name="Path 12715" class="cls-4" d="M20.242,58.521H9.736A4.275,4.275,0,0,1,5.467,54.25V50.99a4.275,4.275,0,0,1,4.269-4.271h3.64A10.9,10.9,0,0,1,23.55,53.793a3.522,3.522,0,0,1-3.308,4.729Zm-10.506-9.9A2.366,2.366,0,0,0,7.374,50.99v3.26a2.366,2.366,0,0,0,2.362,2.364H20.242a1.6,1.6,0,0,0,1.335-.7,1.571,1.571,0,0,0,.191-1.461,8.98,8.98,0,0,0-8.389-5.831Z" transform="translate(3.983 33.457)"/>
      <path id="Path_12716" data-name="Path 12716" class="cls-10" d="M43.8,47.219h3.64a3.318,3.318,0,0,1,3.318,3.318V53.8a3.318,3.318,0,0,1-3.318,3.318H36.938a2.566,2.566,0,0,1-2.414-3.449,9.9,9.9,0,0,1,9.28-6.446Z" transform="translate(30.187 33.91)"/>
      <path id="Path_12717" data-name="Path 12717" class="cls-4" d="M47.9,58.521H37.392a3.522,3.522,0,0,1-3.308-4.729,10.9,10.9,0,0,1,10.174-7.074H47.9a4.277,4.277,0,0,1,4.271,4.271v3.26A4.277,4.277,0,0,1,47.9,58.521Zm-3.64-9.9a8.98,8.98,0,0,0-8.389,5.831,1.571,1.571,0,0,0,.191,1.461,1.6,1.6,0,0,0,1.335.7H47.9a2.368,2.368,0,0,0,2.364-2.364V50.99A2.368,2.368,0,0,0,47.9,48.626Z" transform="translate(29.736 33.457)"/>
      <path id="Path_12718" data-name="Path 12718" class="cls-4" d="M32.678,53.245H22.162a.953.953,0,1,1,0-1.907H32.678a.953.953,0,0,1,0,1.907Z" transform="translate(18.256 37.645)"/>
      <path id="Path_12719" data-name="Path 12719" class="cls-4" d="M37.63,49.47H20.4a.953.953,0,1,1,0-1.907H37.63a.953.953,0,0,1,0,1.907Z" transform="translate(16.659 34.222)"/>
      <path id="Path_12720" data-name="Path 12720" class="cls-11" d="M24.92,54.851a.953.953,0,0,1-.953-.953V26.045a.953.953,0,0,1,1.907,0V53.9A.953.953,0,0,1,24.92,54.851Z" transform="translate(20.757 13.848)"/>
      <path id="Path_12721" data-name="Path 12721" class="cls-12" d="M62.782,37.712V86.534H53.626V37.712" transform="translate(47.648 25.29)"/>
      <path id="Path_12722" data-name="Path 12722" class="cls-13" d="M56.029,37.71h4.576V86.54H56.029Z" transform="translate(49.827 25.289)"/>
      <path id="Path_12723" data-name="Path 12723" class="cls-4" d="M75.635,64.729H49.675a.953.953,0,1,1,0-1.907H75.635a.953.953,0,1,1,0,1.907Z" transform="translate(43.201 48.057)"/>
      <path id="Path_12724" data-name="Path 12724" class="cls-4" d="M38.519,62.442H23.187a.953.953,0,0,1,0-1.907H38.519a.953.953,0,0,1,0,1.907Z" transform="translate(19.185 45.984)"/>
      <path id="Path_12725" data-name="Path 12725" class="cls-4" d="M21.264,62.442H19a.953.953,0,1,1,0-1.907h2.265a.953.953,0,0,1,0,1.907Z" transform="translate(15.389 45.984)"/>
      <path id="Path_12726" data-name="Path 12726" class="cls-4" d="M77.626,26.253a.953.953,0,0,1-.879-.585A30.818,30.818,0,0,0,64.926,11.574a.953.953,0,1,1,1.032-1.6A32.69,32.69,0,0,1,78.513,24.932.953.953,0,0,1,78,26.179a.942.942,0,0,1-.374.074Z" transform="translate(57.497 0)"/>
      <path id="Path_12727" data-name="Path 12727" class="cls-4" d="M73.118,24.221a.953.953,0,0,1-.938-.8c-.135-.82-.292-1.632-.49-2.429a.954.954,0,1,1,1.851-.458c.208.845.381,1.716.519,2.576a.953.953,0,0,1-.784,1.1.923.923,0,0,1-.158.011Z" transform="translate(64.001 9.062)"/>
      <circle id="Ellipse_191" data-name="Ellipse 191" class="cls-14" cx="25.977" cy="25.977" r="25.977" transform="translate(79.879 11.459)"/>
      <path id="Path_12728" data-name="Path 12728" class="cls-8" d="M89.922,36.649a25.94,25.94,0,0,1-13.8,22.956A25.982,25.982,0,0,0,47.289,16.743,25.959,25.959,0,0,1,89.922,36.649Z" transform="translate(41.902 0.781)"/>
      <g id="Group_1238" data-name="Group 1238" transform="translate(1.732 10.502)">
        <path id="Path_12729" data-name="Path 12729" class="cls-4" d="M56.482,39.833a.953.953,0,0,1-.953-.953V16.953a.953.953,0,1,1,1.907,0V38.88A.953.953,0,0,1,56.482,39.833Z" transform="translate(47.641 -4.897)"/>
        <path id="Path_12730" data-name="Path 12730" class="cls-4" d="M56.482,33.807a.953.953,0,0,1-.953-.953v-.631a.953.953,0,0,1,1.907,0v.631A.953.953,0,0,1,56.482,33.807Z" transform="translate(47.641 8.947)"/>
        <path id="Path_12731" data-name="Path 12731" class="cls-4" d="M68.837,64.041a26.932,26.932,0,1,1,26.93-26.932A26.932,26.932,0,0,1,68.837,64.041Zm0-51.955A25.025,25.025,0,1,0,93.86,37.108,25.026,25.026,0,0,0,68.837,12.086Z" transform="translate(35.287 -10.177)"/>
        <path id="Path_12732" data-name="Path 12732" class="cls-4" d="M63.233,87.941H54.081a.953.953,0,0,1-.953-.953V38.165a.953.953,0,0,1,1.907,0V86.034H62.28V38.165a.953.953,0,0,1,1.907,0V86.988A.953.953,0,0,1,63.233,87.941Z" transform="translate(45.464 14.335)"/>
        <path id="Path_12733" data-name="Path 12733" class="cls-4" d="M81.768,75.6H8.969a7.549,7.549,0,0,1-7.55-7.531V49.863a7.615,7.615,0,0,1,2.267-5.4l4.618-4.5a.953.953,0,0,1,.665-.271h72.8a.953.953,0,0,1,.667.273l4.593,4.5a7.549,7.549,0,0,1,2.269,5.39V68.071A7.539,7.539,0,0,1,81.768,75.6Zm-72.412-34L5.021,45.836a5.691,5.691,0,0,0-1.7,4.027V68.071A5.64,5.64,0,0,0,8.969,73.7h72.8a5.63,5.63,0,0,0,5.623-5.625V49.863a5.554,5.554,0,0,0-1.7-4.025l-4.319-4.231Z" transform="translate(-1.419 16.591)"/>
        <path id="Path_12734" data-name="Path 12734" class="cls-4" d="M78.632,54.853H5.833a.953.953,0,0,1-.675-1.628l.362-.362a4.875,4.875,0,0,0,.953-1.321l6.673-22.415a6.433,6.433,0,0,1,5.947-4.036H65.331a6.366,6.366,0,0,1,5.911,3.947L78,51.682a5.415,5.415,0,0,0,.909,1.167l.381.381a.953.953,0,0,1-.675,1.628ZM7.871,52.947h68.7c-.112-.177-.217-.362-.317-.555l-6.8-22.72A4.448,4.448,0,0,0,65.341,27H19.1a4.5,4.5,0,0,0-4.155,2.772l-6.7,22.453a7.65,7.65,0,0,1-.383.719Z" transform="translate(1.717 3.344)"/>
      </g>
      <path id="Path_12735" data-name="Path 12735" class="cls-10" d="M43.011,44.864h-16.8a1.239,1.239,0,0,1,0-2.479h16.8a1.239,1.239,0,1,1,0,2.479Z" transform="translate(21.666 29.527)"/>
      <path id="Path_12736" data-name="Path 12736" class="cls-10" d="M40.213,44.864H37.948a1.239,1.239,0,1,1,0-2.479h2.263a1.239,1.239,0,1,1,0,2.479Z" transform="translate(32.309 29.527)"/>
    </g>
  </g>
</svg>
