<svg xmlns="http://www.w3.org/2000/svg" xmlns:xlink="http://www.w3.org/1999/xlink" width="13" height="13" viewBox="0 0 13 13">
  <defs>
    <style>
      .cls-1 {
        clip-path: url(#clip-Seats_1);
      }

      .cls-2 {
        fill: #1d6392;
      }
    </style>
    <clipPath id="clip-Seats_1">
      <rect width="13" height="13"/>
    </clipPath>
  </defs>
  <g id="Seats_1" data-name="Seats – 1" class="cls-1">
    <path id="car-seat" class="cls-2" d="M33,.312A.984.984,0,0,0,32.275,0H31.5a1.281,1.281,0,0,0-1.216,1.021l-.049.278a.9.9,0,0,0,.186.747.9.9,0,0,0,.7.313h1a1.085,1.085,0,0,0,.4-.077l-.106.91a.857.857,0,0,0-.333-.066H30.942A1.146,1.146,0,0,0,29.869,4L28.859,8.76,24.09,8.418a.678.678,0,0,0-.606.24.69.69,0,0,0-.1.607l.554,2.183a1.2,1.2,0,0,0,1.1.858h6.094a1.02,1.02,0,0,0,.991-.892l.782-7.375a.888.888,0,0,0,0-.125l.268-2.287a1.077,1.077,0,0,0,.069-.312l.018-.255A.984.984,0,0,0,33,.312Z" transform="translate(-21.81 0.346)"/>
  </g>
</svg>
